<svg width="15px" height="17px" viewBox="0 0 15 17" version="1.1" xmlns="http://www.w3.org/2000/svg" xmlns:xlink="http://www.w3.org/1999/xlink">
	<g id="调相机转子监测" stroke="none" stroke-width="1" fill="none" fill-rule="evenodd">
		<g id="V1.2" transform="translate(-668.000000, -261.000000)" fill="#1890FF" fill-rule="nonzero">
			<g id="机组健康度" transform="translate(664.000000, 256.000000)">
				<g id="运行信息" transform="translate(4.000000, 0.000000)">
					<g id="Group" transform="translate(0.000000, 5.000000)">
						<path d="M15,6.228 L15,12.403116 C15,12.6064838 14.8913664,12.7945995 14.7145843,12.8973571 L7.79150736,16.9215106 C7.61146518,17.0261631 7.38853482,17.0261631 7.20849264,16.9215106 L0.285415722,12.8973571 C0.108633578,12.7945995 0,12.6064838 0,12.403116 L0,6.228 L2.307,7.65 L2.30769231,11.4181008 L7.5,14.436216 L12.6923077,11.4181008 L12.692,7.65 L15,6.228 Z M7.18396821,5.03518345 C7.36267044,4.93182027 7.58298281,4.93182027 7.76168504,5.03518345 L7.76168504,5.03518345 L10.3001466,6.50345531 C10.4784235,6.60657249 10.5882112,6.79690499 10.5882112,7.002856 L10.5882112,7.002856 L10.5882112,9.83525017 C10.5882112,10.0412033 10.4784212,10.2315375 10.3001414,10.3346539 L10.3001414,10.3346539 L7.76167982,11.8028903 C7.58298024,11.9062495 7.36267301,11.9062495 7.18397343,11.8028903 L7.18397343,11.8028903 L4.64551189,10.3346539 C4.46723202,10.2315375 4.35744201,10.0412033 4.35744201,9.83525017 L4.35744201,9.83525017 L4.35744201,7.002856 C4.35744201,6.79690499 4.46722974,6.60657249 4.64550667,6.50345531 L4.64550667,6.50345531 Z M7.79151259,0.0784924257 L14.61,4.041 L12.393,5.407 L7.5,2.56379625 L2.606,5.407 L0.39,4.041 L7.20848741,0.0784924257 C7.38853222,-0.0261641419 7.61146778,-0.0261641419 7.79151259,0.0784924257 Z" id="Combined-Shape">
						</path>
					</g>
				</g>
			</g>
		</g>
	</g>
</svg>
